<?xml version="1.0" encoding="UTF-8" standalone="no"?><!DOCTYPE svg PUBLIC "-//W3C//DTD SVG 1.1//EN" "http://www.w3.org/Graphics/SVG/1.1/DTD/svg11.dtd"><svg width="100%" height="100%" viewBox="0 0 1000 1000" version="1.1" xmlns="http://www.w3.org/2000/svg" xmlns:xlink="http://www.w3.org/1999/xlink" xml:space="preserve" xmlns:serif="http://www.serif.com/" style="fill-rule:evenodd;clip-rule:evenodd;stroke-linejoin:round;stroke-miterlimit:2;"><path d="M1000,212.057l0,575.886c0,117.037 -95.02,212.057 -212.057,212.057l-575.886,0c-117.037,0 -212.057,-95.02 -212.057,-212.057l0,-575.886c0,-117.037 95.02,-212.057 212.057,-212.057l575.886,0c117.037,0 212.057,95.02 212.057,212.057Z" style="fill:#3b4252;"/><path d="M849.185,307.135l0,387.947c0,87.544 -71.075,158.619 -158.619,158.619l-382.021,0c-87.544,0 -158.619,-71.075 -158.619,-158.619l0,-387.947c0,-87.544 71.075,-158.619 158.619,-158.619l382.021,0c87.544,0 158.619,71.075 158.619,158.619Z" style="fill:#d8dee9;"/><path d="M808.148,323.261l0,353.479c0,74.816 -60.741,135.557 -135.557,135.557l-345.182,0c-74.816,0 -135.557,-60.741 -135.557,-135.557l0,-353.479c0,-74.816 60.741,-135.557 135.557,-135.557l345.182,0c74.816,0 135.557,60.741 135.557,135.557Z" style="fill:#3b4252;"/><path d="M760.859,310.881l0,377.654c0,47.458 -38.53,85.987 -85.987,85.987l-355.432,0c-47.458,0 -85.987,-38.53 -85.987,-85.987l0,-377.654c0,-47.458 38.53,-85.987 85.987,-85.987l355.432,0c47.458,0 85.987,38.53 85.987,85.987Z" style="fill:#d8dee9;"/><path d="M719.377,318.003l0,363.409c0,29.312 -23.798,53.11 -53.11,53.11l-336.743,0c-29.312,0 -53.11,-23.798 -53.11,-53.11l0,-363.409c0,-29.312 23.798,-53.11 53.11,-53.11l336.743,0c29.312,0 53.11,23.798 53.11,53.11Z" style="fill:#3b4252;"/><g transform="matrix(0.867028,0,0,0.867028,76.784637,33.921137)"><clipPath id="_clip1"><path d="M396.52,622.56c2.574,0.896 5.598,2.044 9.072,3.444c3.473,1.4 6.418,2.258 8.835,2.572c0.855,0.153 1.359,0.373 1.511,0.662c0.152,0.289 0.037,0.583 -0.347,0.883c-0.454,0.423 -0.988,1.365 -1.602,2.827c-0.615,1.461 -1.041,2.888 -1.28,4.28c-0.626,3.835 -1.62,6.934 -2.983,9.3c-1.362,2.365 -3.157,5.007 -5.384,7.926c-2.157,2.795 -5.021,4.65 -8.592,5.565c-3.571,0.914 -7.345,1.157 -11.322,0.729c-2.489,-0.289 -4.95,-0.432 -7.384,-0.43c-2.434,0.002 -4.957,0.42 -7.568,1.253c-1.161,0.365 -1.743,-0.146 -1.748,-1.534c0.324,-7.796 -1.208,-14.153 -4.596,-19.073c-0.831,-1.321 -0.686,-1.945 0.436,-1.871c5.501,-1.161 9.801,-3.606 12.9,-7.334c3.099,-3.728 5.68,-8.035 7.745,-12.922l0.036,-0.037l-0.002,-0.073c5.602,-10.316 12.042,-15.525 19.317,-15.628c7.276,-0.103 12.93,1.422 16.964,4.575c6.954,5.478 9.592,11.155 7.913,17.032c-0.386,1.347 -1.189,2.197 -2.411,2.551c-1.222,0.354 -2.351,0.177 -3.388,-0.532c-2.049,-1.393 -2.506,-4.025 -1.369,-7.894c1.712,-5.464 0.113,-9.167 -4.796,-11.109c-4.245,-1.64 -8.08,-1.122 -11.505,1.554c-3.425,2.676 -6.397,6.669 -8.915,11.979c-0.048,0.05 -0.071,0.099 -0.07,0.148l0.002,0.073c-0.208,0.516 -0.03,0.877 0.534,1.084Zm-22.101,18.716c0.843,1.905 1.649,4.371 2.418,7.398c0.769,3.027 1.207,5.379 1.315,7.056l0.039,0.109c-0.024,0.025 -0.048,0.05 -0.071,0.075c-0.368,2.174 0.319,3.048 2.063,2.622c6.397,-1.399 11.597,-4.733 15.601,-10.001c2.653,-3.512 4.757,-7.073 6.313,-10.683c1.556,-3.611 1.683,-6.826 0.383,-9.647l-0.002,-0.073l-0.037,-0.036c-1.034,-1.707 -3.335,-2.912 -6.903,-3.617c-0.367,-0.114 -0.681,0.039 -0.94,0.458c-1.696,3.857 -4.087,7.132 -7.17,9.825c-3.084,2.693 -7.221,4.483 -12.411,5.37c-0.605,0.183 -0.804,0.564 -0.597,1.144Zm-63.268,-43.852c-0.357,0.552 -0.805,0.675 -1.345,0.368c-0.54,-0.307 -0.59,-0.853 -0.15,-1.64c0.739,-1.005 1.538,-2.051 2.398,-3.14c0.86,-1.089 1.784,-2.06 2.774,-2.916c0.291,-0.252 0.396,-0.536 0.316,-0.853c-0.081,-0.317 -0.275,-0.525 -0.585,-0.624c-3.836,-1.12 -7.224,-3.17 -10.166,-6.151c-2.942,-2.981 -4.863,-6.523 -5.764,-10.626c-0.162,-0.776 0.062,-1.259 0.67,-1.449c0.609,-0.19 1.019,0.132 1.231,0.965c0.839,3.302 2.462,5.704 4.868,7.205c2.406,1.501 6.127,1.612 11.163,0.331l43.341,-10.965c1.067,-0.271 1.688,-0.695 1.861,-1.272l1.136,-4.124c0.088,-0.91 -1.005,-1.857 -3.279,-2.842c-0.594,-0.24 -0.816,-0.662 -0.669,-1.268c0.148,-0.606 0.594,-0.701 1.339,-0.287c4.793,2.51 9.311,4.22 13.555,5.13c0.802,0.222 0.955,0.823 0.458,1.801c-1.686,2.169 -2.917,4.275 -3.694,6.319c-0.777,2.044 -1.083,4.714 -0.92,8.011c0.069,0.551 -0.103,0.887 -0.516,1.01c-0.413,0.123 -0.749,0.022 -1.009,-0.303c-0.512,-0.758 -1.264,-1.374 -2.255,-1.85c-0.991,-0.476 -2.437,-0.472 -4.338,0.011l-33.609,8.597c-4.803,1.221 -8.457,2.7 -10.963,4.438c-2.506,1.738 -4.455,3.778 -5.848,6.121Zm16.769,-93.991c-0.631,-2.271 -1.348,-4.588 -2.152,-6.952c-0.803,-2.364 -1.837,-4.615 -3.101,-6.752c-0.963,-1.465 -0.579,-2.117 1.151,-1.956c1.263,0.192 2.491,-0.066 3.684,-0.775c1.193,-0.709 2.349,-1.337 3.469,-1.886c6.754,-3.144 13.533,-4.002 20.339,-2.572c9.895,2.123 17.775,7.652 23.641,16.586c5.865,8.934 10.095,16.819 12.69,23.655c0.346,0.93 0.277,1.524 -0.208,1.781c-0.485,0.257 -0.882,0.066 -1.191,-0.573c-3.072,-5.711 -6.518,-11.563 -10.337,-17.557c-3.819,-5.993 -11.16,-10.024 -22.022,-12.093c-4.268,-0.795 -8.4,-1.081 -12.395,-0.857c-3.996,0.224 -7.569,1.467 -10.719,3.729c-1.686,1.299 -2.018,3.679 -0.995,7.138c0.112,0.274 0.336,0.451 0.671,0.53c6.473,1.492 11.934,2.737 16.384,3.734c4.45,0.997 8.923,2.009 13.419,3.035c3.105,0.627 4.488,-0.214 4.149,-2.522l-1.225,-2.676c-0.301,-0.672 -0.216,-1.183 0.255,-1.531c0.471,-0.348 0.882,-0.216 1.232,0.397c1.305,2.111 2.582,4.154 3.831,6.129c1.249,1.974 2.647,3.657 4.192,5.047c0.683,0.55 0.537,1.17 -0.439,1.859c-2.222,1.173 -3.798,2.083 -4.728,2.73c-0.931,0.647 -2.529,2.4 -4.795,5.26c-0.393,0.615 -0.771,0.87 -1.136,0.766c-0.364,-0.104 -0.562,-0.389 -0.594,-0.856c-0.231,-2.318 -2.193,-3.895 -5.885,-4.731c-3.818,-0.901 -7.669,-1.854 -11.551,-2.859c-3.882,-1.005 -7.695,-1.896 -11.436,-2.673c-1.557,-0.297 -2.822,-0.18 -3.796,0.351c-0.974,0.53 -1.841,1.059 -2.602,1.587c-3.224,2.422 -6.286,2.963 -9.188,1.624c-2.902,-1.339 -5.524,-4.088 -7.866,-8.248c-0.528,-0.761 -0.554,-1.324 -0.079,-1.689c0.475,-0.365 0.896,-0.275 1.262,0.271c1.185,1.871 2.526,2.895 4.022,3.071c1.497,0.176 2.845,-0.778 4.044,-2.864c1.421,-2.423 2.869,-3.991 4.346,-4.703c1.477,-0.712 3.05,-1.013 4.721,-0.901c0.276,0.03 0.519,-0.063 0.729,-0.279c0.21,-0.216 0.28,-0.473 0.209,-0.773Zm31.026,-91.318c-0.088,2.189 0.427,3.788 1.547,4.797c1.119,1.009 2.771,1.009 4.956,-0c2.812,-1.287 5.051,-1.714 6.719,-1.28c1.667,0.434 3.205,1.292 4.612,2.575c0.253,0.235 0.511,0.306 0.773,0.213c0.262,-0.093 0.462,-0.27 0.6,-0.529c1.593,-4.801 2.946,-10.056 4.06,-15.766c0.07,-0.337 0.254,-0.545 0.551,-0.624c0.298,-0.079 0.563,-0.038 0.797,0.123c1.488,1.166 3.057,1.892 4.71,2.179c1.652,0.286 3.326,0.531 5.02,0.735c6.339,0.787 11.286,3.56 14.841,8.318c4.442,5.764 6.222,11.606 5.34,17.525c-0.971,6.547 -1.235,12.126 -0.792,16.738c0.038,0.563 -0.213,0.877 -0.754,0.94c-0.987,0.182 -1.962,0.377 -2.926,0.585c-0.964,0.208 -1.939,0.403 -2.926,0.585c-0.298,0.079 -0.503,0.249 -0.617,0.51c-0.114,0.261 -0.057,0.521 0.171,0.779c2.149,3.061 4.169,6.144 6.059,9.249c1.89,3.105 3.76,6.252 5.608,9.44c0.215,0.452 0.15,0.82 -0.197,1.103c-0.347,0.283 -0.707,0.291 -1.08,0.024c-3.297,-2.645 -6.749,-5.531 -10.357,-8.659c-3.608,-3.128 -6.987,-6.216 -10.136,-9.267c-0.302,-0.238 -0.603,-0.294 -0.904,-0.166c-3.449,1.345 -5.192,3.088 -5.229,5.232c-0.027,0.437 -0.204,0.719 -0.528,0.845c-0.325,0.126 -0.647,0.008 -0.965,-0.353c-3.685,-4.23 -3.641,-8.238 0.131,-12.025c0.387,-0.342 0.399,-0.719 0.034,-1.132l-1.059,-1.2c-3.392,-3.846 -5.886,-6.556 -7.482,-8.131c-1.596,-1.575 -3.491,-3.529 -5.686,-5.861c-1.076,-1.116 -2.158,-1.744 -3.247,-1.886c-1.088,-0.141 -2.108,-0.205 -3.06,-0.192c-4.056,0.136 -6.914,-1.14 -8.575,-3.829c-1.66,-2.689 -2.231,-6.418 -1.713,-11.189c0.032,-0.9 0.335,-1.363 0.91,-1.388c0.575,-0.025 0.841,0.303 0.798,0.983Zm38.605,28.313c0.273,0.31 0.56,0.401 0.861,0.273c1.908,-0.49 3.818,-0.913 5.73,-1.269c1.912,-0.356 3.832,-0.741 5.76,-1.157c0.547,-0.161 0.775,-0.5 0.686,-1.018c-0.296,-1.896 -0.894,-4.03 -1.793,-6.403c-0.9,-2.373 -2.496,-4.911 -4.79,-7.615c-2.384,-2.807 -5.1,-4.806 -8.146,-5.996c-3.046,-1.191 -6.104,-2.199 -9.174,-3.025c-3.053,-0.703 -5.539,1.238 -7.46,5.824c-0.144,0.357 -0.103,0.664 0.125,0.922c0.299,0.287 0.722,0.74 1.268,1.36l14.027,14.887c0.686,0.726 1.655,1.798 2.907,3.218Zm53.317,-86.598c-0.504,-0.612 -0.514,-1.12 -0.032,-1.526c0.482,-0.406 1.008,-0.323 1.577,0.248c1.676,1.751 3.073,3.666 4.19,5.743c0.133,0.334 0.389,0.484 0.766,0.45c0.315,0.041 0.577,-0.12 0.786,-0.485c1.671,-3.742 4.555,-6.771 8.65,-9.088c4.096,-2.316 8.354,-3.481 12.776,-3.494c0.894,-0.045 1.372,0.275 1.433,0.961c0.061,0.686 -0.34,1.032 -1.203,1.04c-3.621,0.08 -6.684,1.182 -9.19,3.305c-2.506,2.123 -3.503,5.874 -2.99,11.253l1.127,11.509c0.03,0.343 0.19,0.579 0.478,0.709c0.288,0.13 0.561,0.097 0.82,-0.099c1.794,-1.196 3.587,-2.496 5.38,-3.899c1.793,-1.403 3.426,-2.948 4.9,-4.634c1.156,-1.381 1.895,-1.222 2.219,0.476c0.25,1.256 0.882,2.34 1.896,3.252c1.014,0.912 1.958,1.813 2.832,2.702c5.152,5.485 8.102,11.649 8.849,18.493c1.136,10.057 -1.62,19.277 -8.269,27.66c-6.649,8.383 -12.791,14.88 -18.427,19.493c-0.771,0.656 -1.371,0.804 -1.8,0.445c-0.429,-0.359 -0.358,-0.823 0.213,-1.392c4.452,-4.715 8.913,-9.828 13.381,-15.339c4.468,-5.511 5.99,-13.749 4.566,-24.713c-0.59,-4.301 -1.612,-8.313 -3.066,-12.036c-1.454,-3.723 -3.768,-6.722 -6.942,-8.997c-1.621,-1.134 -3.711,-0.931 -6.269,0.609c-0.299,0.13 -0.431,0.401 -0.394,0.812l2.968,31.04c0.247,2.777 1.463,3.826 3.649,3.148c0.468,-0.18 0.873,-0.475 1.217,-0.886c0.344,-0.411 0.734,-0.782 1.171,-1.115c0.437,-0.333 0.859,-0.344 1.267,-0.035c0.408,0.309 0.44,0.669 0.096,1.08c-1.515,2.001 -3.06,3.865 -4.633,5.595c-1.574,1.729 -2.74,3.578 -3.498,5.546c-0.338,0.859 -0.955,0.914 -1.851,0.165c-3.344,-3.02 -6.888,-5.192 -10.634,-6.517c-1.22,-0.513 -1.356,-1.071 -0.408,-1.674c2.127,-0.949 3.006,-3.308 2.636,-7.076l-3.157,-34.34c-0.446,-4.625 -1.305,-8.366 -2.579,-11.224c-1.273,-2.858 -2.773,-5.247 -4.498,-7.167Zm147.153,64.113c2.341,0.468 4.979,0.914 7.914,1.338c2.935,0.425 5.544,0.556 7.827,0.393c1.74,-0.21 2.153,0.424 1.239,1.901c-0.708,1.068 -1.016,2.288 -0.926,3.66c0.09,1.372 0.119,2.671 0.086,3.896c-0.24,6.645 -2.33,12.045 -6.271,16.198c-4.117,4.365 -8.693,6.805 -13.729,7.321c-2.128,0.246 -4.336,0.347 -6.626,0.302c-2.289,-0.045 -4.694,0.184 -7.213,0.686c-2.52,0.502 -4.966,1.267 -7.34,2.293c-0.938,0.429 -1.428,0.022 -1.469,-1.22c0.131,-5.975 -2.039,-12.385 -6.51,-19.23c-0.243,-0.515 -0.249,-0.912 -0.019,-1.19c0.231,-0.278 0.523,-0.36 0.875,-0.246c2.178,0.825 4.474,-0.243 6.888,-3.204c2.177,-2.621 4.326,-5.276 6.447,-7.966c2.122,-2.689 4.31,-5.312 6.567,-7.867l0.033,-0.04c0.629,-0.865 0.953,-2.117 0.972,-3.756c0.119,-2.675 -0.875,-4.037 -2.981,-4.086l-6.994,-0.305c-0.291,0.027 -0.524,0.146 -0.7,0.358c-2.111,2.542 -4.214,5.101 -6.309,7.678c-2.095,2.577 -4.198,5.136 -6.309,7.678c-3.474,4.183 -4.698,7.327 -3.672,9.432c0.049,0.264 -0.02,0.509 -0.207,0.734c-0.187,0.225 -0.404,0.325 -0.651,0.299c-4.156,-0.275 -8.105,0.494 -11.847,2.307c-0.405,0.111 -0.703,0.065 -0.893,-0.137c-0.19,-0.202 -0.276,-0.475 -0.259,-0.819c0.984,-4.148 0.964,-8.191 -0.06,-12.129c-0.124,-0.282 -0.087,-0.542 0.111,-0.78c0.198,-0.238 0.458,-0.336 0.779,-0.292c2.381,0.635 5.286,-1.113 8.716,-5.243l6.134,-7.387c2.045,-2.462 4.05,-4.958 6.015,-7.486c0.963,-1.213 1.424,-2.374 1.382,-3.482c-0.042,-1.108 -0.142,-2.131 -0.303,-3.07c-0.734,-3.965 0.099,-6.975 2.5,-9.03c2.4,-2.055 5.984,-3.206 10.751,-3.452c0.899,-0.059 1.41,0.187 1.535,0.738c0.124,0.551 -0.153,0.857 -0.831,0.92c-2.176,0.25 -3.683,1.001 -4.521,2.252c-0.837,1.251 -0.576,2.888 0.785,4.913c1.825,2.813 2.595,5.197 2.312,7.154c-0.283,1.957 -1.062,3.838 -2.337,5.642c-0.242,0.291 -0.306,0.584 -0.193,0.879c0.113,0.295 0.403,0.458 0.87,0.488c2.296,-0.017 4.858,-0.059 7.687,-0.125c2.829,-0.067 4.977,-0.363 6.443,-0.89c1.061,-0.416 1.789,-0.08 2.183,1.008c-0.022,0.026 -0.007,0.062 0.046,0.106c2.044,4.65 2.529,8.564 1.454,11.743c-0.118,0.304 -0.12,0.549 -0.005,0.734c0.115,0.185 0.322,0.312 0.622,0.382Zm-7.323,8.01c-5.075,6.165 -8.874,10.793 -11.398,13.887c-0.33,0.397 -0.402,0.807 -0.216,1.23l3.082,8.733c0.376,0.894 0.963,1.292 1.76,1.193l1.342,-0.161c4.858,-1.379 9.189,-4.358 12.993,-8.939c2.177,-2.621 3.618,-5.461 4.325,-8.521c0.706,-3.059 0.997,-6.318 0.872,-9.777c-0.096,-1.824 -1.548,-3.119 -4.356,-3.886c-0.551,-0.144 -1.287,-0.308 -2.208,-0.492c-0.353,-0.114 -0.635,0.01 -0.845,0.372c-0.616,0.741 -2.399,2.862 -5.35,6.361Zm12.715,91.697c0.805,-0.195 1.35,-0.725 1.633,-1.587c0.283,-0.863 0.586,-1.598 0.909,-2.206c2.041,-4.325 4.849,-7.593 8.422,-9.806c3.573,-2.213 7.486,-3.756 11.738,-4.629c9.627,-1.922 17.415,-0.456 23.363,4.397c2.116,1.725 3.947,3.807 5.495,6.248c1.548,2.44 2.894,4.982 4.039,7.625c0.303,0.824 -0.024,1.519 -0.98,2.086l-16.092,10.038c-0.865,0.483 -1.462,0.455 -1.79,-0.086l-0.016,-0.102l-11.376,-19.645c-0.268,-0.376 -0.617,-0.496 -1.049,-0.359c-7.288,2.845 -11.69,6.389 -13.204,10.631c-1.514,4.242 -1.221,8.185 0.881,11.828c0.412,0.632 0.429,1.074 0.05,1.325c-0.379,0.251 -0.705,0.171 -0.978,-0.239c-1.824,-2.537 -3.663,-4.94 -5.515,-7.211c-1.853,-2.271 -3.732,-4.268 -5.638,-5.99c-0.252,-0.274 -0.39,-0.714 -0.415,-1.32c-0.025,-0.606 0.15,-0.938 0.524,-0.996Zm28.077,-9.245c-0.267,0.076 -0.461,0.229 -0.582,0.457c-0.121,0.228 -0.09,0.484 0.094,0.769l5.777,10.227c0.284,0.478 0.665,0.575 1.143,0.292l14.279,-8.605c0.7,-0.423 0.707,-1.051 0.019,-1.884c-1.464,-1.792 -4.309,-2.723 -8.535,-2.795c-4.226,-0.071 -8.291,0.442 -12.195,1.539Zm-29.403,82.291c-0.526,-2.146 -1.101,-4.502 -1.725,-7.067c-0.624,-2.565 -1.192,-4.936 -1.704,-7.114c-0.193,-0.761 -0.185,-1.293 0.023,-1.596c0.208,-0.303 0.55,-0.313 1.027,-0.029c0.662,0.29 2.351,-0.135 5.067,-1.276c7.073,-3.027 14.431,-2.756 22.072,0.815c6.538,3.088 10.788,8.611 12.751,16.571c0.587,2.436 1.304,4.788 2.152,7.056c0.848,2.268 2.106,4.5 3.775,6.696c0.757,0.932 0.484,1.64 -0.816,2.122c-7.521,2.418 -12.818,5.809 -15.894,10.174c-0.946,1.389 -1.614,1.284 -2.004,-0.314c-0.423,-1.951 -1.395,-3.335 -2.917,-4.151l-0.095,-0.041l-21.674,-9.319c-1.45,-0.635 -2.675,-0.542 -3.673,0.28c-0.998,0.822 -1.089,2.144 -0.271,3.967c0.329,0.708 0.266,1.215 -0.188,1.524c-0.454,0.308 -0.939,0.106 -1.453,-0.608c-1.206,-1.88 -2.397,-3.707 -3.574,-5.481c-1.177,-1.774 -2.49,-3.41 -3.938,-4.908l-0.027,-0.068c-0.532,-0.759 -0.297,-1.295 0.704,-1.608c0.53,-0.181 0.962,-0.481 1.295,-0.898c2.362,-3.249 5.736,-4.477 10.122,-3.684c0.217,0.02 0.475,-0.055 0.775,-0.224c0.156,-0.27 0.219,-0.543 0.189,-0.819Zm27.626,12.714c1.392,-1.72 3.906,-3.343 7.542,-4.87c2.065,-0.599 2.649,-1.545 1.751,-2.84c-3.518,-5.523 -8.447,-9.239 -14.786,-11.15c-9.049,-2.759 -15.686,-2.058 -19.912,2.103c-0.014,0.032 -0.043,0.056 -0.089,0.074c-0.976,1.113 -0.887,3.012 0.268,5.696c0.134,0.209 0.28,0.348 0.437,0.417c0.487,0.176 1.234,0.484 2.243,0.926l21.52,9.928c0.378,0.166 0.72,0.071 1.026,-0.284Zm-62.858,30.977c0.429,-0.549 0.795,-0.645 1.098,-0.286c0.303,0.359 0.352,0.926 0.145,1.702c-0.588,6.561 0.336,11.82 2.771,15.777c2.435,3.957 5.945,6.498 10.53,7.623c7.702,1.905 12.074,4.448 13.116,7.628c1.042,3.181 0.83,7.899 -0.636,14.154c-0.126,0.645 -0.424,0.932 -0.895,0.859c-0.47,-0.073 -0.657,-0.423 -0.56,-1.05c0.523,-3.727 -0.646,-5.938 -3.507,-6.633c-3.477,-0.84 -6.342,-1.736 -8.593,-2.688c-0.452,-0.206 -0.819,-0.079 -1.101,0.379c-1.703,3 -3.222,6.019 -4.559,9.055c-1.336,3.036 -2.592,6.154 -3.766,9.353c-0.107,0.35 -0.319,0.563 -0.637,0.638c-0.318,0.076 -0.591,-0.038 -0.82,-0.342c-1.261,-1.445 -2.699,-2.457 -4.313,-3.035c-1.614,-0.578 -3.239,-1.109 -4.876,-1.592c-6.151,-2.016 -10.648,-5.707 -13.49,-11.072c-3.505,-6.695 -4.343,-12.878 -2.515,-18.548c0.896,-2.864 1.714,-5.953 2.453,-9.267c0.739,-3.314 1.195,-6.3 1.368,-8.959c0.104,-0.551 0.389,-0.809 0.856,-0.774c2.291,0.037 5.382,0.124 9.274,0.261c3.892,0.137 6.778,-0.924 8.657,-3.183Zm-3.45,12.164c-1.942,0.395 -4.179,0.608 -6.711,0.64c-2.762,0.053 -5.223,0.101 -7.382,0.145c-0.525,0.002 -0.793,0.289 -0.802,0.862c0.041,1.959 0.258,4.497 0.653,7.614c0.394,3.117 1.509,6.252 3.345,9.407c1.948,3.206 4.34,5.691 7.176,7.455c2.836,1.764 5.731,3.33 8.685,4.697c3.22,1.404 6.315,-0.657 9.285,-6.185c0.282,-0.459 0.171,-0.835 -0.335,-1.128c-5.189,-2.816 -8.608,-6.304 -10.258,-10.464c-1.599,-3.949 -2.459,-8.012 -2.58,-12.19c-0.003,-0.201 -0.115,-0.414 -0.337,-0.641c-0.222,-0.227 -0.468,-0.297 -0.738,-0.21Zm-77.039,7.982c0.044,0.828 0.464,1.46 1.26,1.897c0.796,0.437 1.463,0.87 2.001,1.3c3.875,2.802 6.571,6.163 8.089,10.082c1.517,3.919 2.314,8.049 2.39,12.39c0.117,9.816 -2.756,17.201 -8.621,22.155c-2.085,1.762 -4.469,3.179 -7.152,4.252c-2.684,1.073 -5.429,1.928 -8.238,2.567c-0.865,0.146 -1.489,-0.303 -1.87,-1.348l-6.905,-17.665c-0.316,-0.939 -0.178,-1.52 0.414,-1.744l0.103,0.003l21.403,-7.567c0.419,-0.194 0.601,-0.516 0.546,-0.965c-1.456,-7.688 -4.129,-12.666 -8.02,-14.935c-3.891,-2.269 -7.82,-2.706 -11.788,-1.311c-0.697,0.289 -1.134,0.224 -1.311,-0.194c-0.177,-0.419 -0.038,-0.724 0.415,-0.917c2.829,-1.326 5.53,-2.691 8.103,-4.094c2.573,-1.403 4.881,-2.883 6.925,-4.44c0.316,-0.197 0.774,-0.252 1.374,-0.165c0.6,0.087 0.894,0.32 0.883,0.698Zm3.92,29.299c-0.026,-0.276 -0.14,-0.495 -0.342,-0.656c-0.202,-0.161 -0.459,-0.177 -0.773,-0.049l-11.115,3.797c-0.522,0.191 -0.688,0.547 -0.497,1.07l5.83,15.618c0.287,0.766 0.903,0.888 1.848,0.366c2.03,-1.109 3.47,-3.735 4.317,-7.875c0.848,-4.141 1.092,-8.231 0.731,-12.27Z" clip-rule="nonzero"/></clipPath><g clip-path="url(#_clip1)"><g transform="matrix(1.153365,0,0,1.153365,-63.102753,-70.684692)"><g transform="matrix(-66.155011,-63.453072,63.453072,-66.155011,421.536275,615.524284)"><path d="M0.291,-0.06c-0.023,0.011 -0.052,0.023 -0.084,0.036c-0.033,0.013 -0.059,0.027 -0.077,0.04c-0.007,0.005 -0.012,0.006 -0.015,0.005c-0.003,-0.001 -0.004,-0.004 -0.003,-0.008c0,-0.006 -0.002,-0.016 -0.008,-0.03c-0.005,-0.014 -0.012,-0.027 -0.019,-0.038c-0.021,-0.03 -0.034,-0.058 -0.041,-0.083c-0.006,-0.025 -0.011,-0.055 -0.015,-0.089c-0.004,-0.033 0.004,-0.065 0.022,-0.094c0.018,-0.03 0.043,-0.056 0.073,-0.079c0.019,-0.014 0.037,-0.029 0.053,-0.045c0.017,-0.016 0.031,-0.035 0.043,-0.058c0.006,-0.01 0.013,-0.01 0.022,-0.001c0.049,0.055 0.101,0.089 0.156,0.1c0.014,0.004 0.017,0.009 0.009,0.016c-0.03,0.044 -0.043,0.089 -0.04,0.135c0.003,0.046 0.014,0.092 0.032,0.139l0,0l0,0c0.029,0.107 0.019,0.185 -0.03,0.233c-0.049,0.048 -0.098,0.075 -0.146,0.08c-0.083,0.008 -0.139,-0.013 -0.166,-0.064c-0.006,-0.012 -0.006,-0.023 -0,-0.033c0.006,-0.01 0.015,-0.017 0.027,-0.019c0.023,-0.004 0.043,0.011 0.061,0.045c0.024,0.049 0.059,0.063 0.105,0.044c0.04,-0.017 0.062,-0.045 0.068,-0.086c0.006,-0.041 0,-0.087 -0.018,-0.14c0,-0.001 -0,-0.001 -0,-0.001l-0,-0c-0.002,-0.005 -0.006,-0.006 -0.011,-0.004Zm0.028,-0.272c-0.018,-0.007 -0.04,-0.019 -0.065,-0.035c-0.025,-0.016 -0.043,-0.029 -0.055,-0.04l-0.001,-0l0,-0.001c-0.012,-0.017 -0.022,-0.019 -0.031,-0.004c-0.035,0.051 -0.048,0.108 -0.041,0.17c0.005,0.041 0.014,0.079 0.027,0.114c0.013,0.035 0.033,0.058 0.061,0.068l0,0l0,0c0.018,0.005 0.042,-0.002 0.071,-0.021c0.003,-0.002 0.004,-0.005 0.003,-0.009c-0.014,-0.037 -0.019,-0.075 -0.015,-0.114c0.003,-0.039 0.02,-0.078 0.05,-0.118c0.003,-0.005 0.002,-0.009 -0.003,-0.012Z" style="fill:#d8dee9;fill-opacity:0.19;fill-rule:nonzero;"/></g><g transform="matrix(-22.585376,-88.840748,88.840748,-22.585376,382.061762,567.034379)"><path d="M0.025,-0.642c-0.004,-0.005 -0.004,-0.009 -0,-0.013c0.004,-0.004 0.009,-0.003 0.015,0.002c0.007,0.009 0.015,0.019 0.023,0.029c0.008,0.01 0.015,0.021 0.02,0.032c0.002,0.003 0.004,0.005 0.007,0.005c0.003,0 0.005,-0.001 0.007,-0.004c0.019,-0.033 0.046,-0.059 0.08,-0.079c0.034,-0.02 0.071,-0.029 0.111,-0.028c0.007,0 0.011,0.003 0.012,0.01c0,0.006 -0.004,0.009 -0.012,0.009c-0.032,0 -0.058,0.009 -0.077,0.028c-0.019,0.019 -0.029,0.052 -0.029,0.102l-0,0.423c0,0.01 0.002,0.017 0.007,0.02l0.035,0.02c0.008,0.003 0.019,-0.005 0.034,-0.023c0.004,-0.005 0.008,-0.006 0.013,-0.003c0.005,0.003 0.005,0.007 -0,0.013c-0.034,0.038 -0.06,0.076 -0.079,0.112c-0.004,0.007 -0.01,0.007 -0.018,0c-0.016,-0.021 -0.032,-0.037 -0.049,-0.049c-0.017,-0.012 -0.041,-0.021 -0.071,-0.027c-0.005,-0.001 -0.008,-0.003 -0.008,-0.007c-0,-0.004 0.002,-0.007 0.005,-0.009c0.008,-0.003 0.016,-0.008 0.022,-0.016c0.007,-0.008 0.01,-0.021 0.01,-0.04l-0,-0.328c0,-0.047 -0.005,-0.084 -0.015,-0.111c-0.01,-0.027 -0.024,-0.05 -0.042,-0.068Z" style="fill:#d8dee9;fill-opacity:0.19;fill-rule:nonzero;"/></g><g transform="matrix(21.057013,-89.215357,89.215357,21.057013,372.997717,524.925934)"><path d="M0.203,-0.429c0.02,-0.011 0.039,-0.022 0.059,-0.035c0.02,-0.013 0.038,-0.027 0.055,-0.043c0.011,-0.012 0.018,-0.01 0.021,0.006c0.001,0.012 0.006,0.023 0.015,0.032c0.009,0.009 0.017,0.019 0.025,0.028c0.044,0.055 0.066,0.116 0.068,0.182c0.002,0.096 -0.032,0.18 -0.101,0.254c-0.069,0.073 -0.133,0.129 -0.19,0.168c-0.008,0.005 -0.013,0.006 -0.017,0.002c-0.003,-0.004 -0.003,-0.008 0.003,-0.012c0.046,-0.041 0.092,-0.085 0.139,-0.133c0.047,-0.048 0.068,-0.125 0.063,-0.229c-0.002,-0.041 -0.008,-0.08 -0.019,-0.116c-0.011,-0.036 -0.03,-0.066 -0.058,-0.091c-0.016,-0.013 -0.038,-0.011 -0.068,0.006c-0.002,0.002 -0.003,0.004 -0.003,0.007c0,0.063 0.001,0.116 0.001,0.159c0,0.043 0.001,0.087 0.001,0.13c0.001,0.03 0.012,0.041 0.032,0.033l0.022,-0.017c0.006,-0.004 0.01,-0.005 0.015,-0.001c0.004,0.004 0.004,0.008 -0.001,0.012c-0.017,0.017 -0.033,0.033 -0.048,0.049c-0.015,0.016 -0.028,0.032 -0.037,0.05c-0.004,0.007 -0.01,0.007 -0.018,0c-0.016,-0.018 -0.027,-0.03 -0.035,-0.038c-0.008,-0.007 -0.028,-0.018 -0.059,-0.033c-0.007,-0.002 -0.01,-0.005 -0.01,-0.009c0,-0.004 0.002,-0.006 0.007,-0.007c0.021,-0.007 0.031,-0.029 0.031,-0.064c0,-0.037 0,-0.075 0.001,-0.113c0.001,-0.038 0.001,-0.075 -0,-0.111c-0.001,-0.015 -0.004,-0.026 -0.011,-0.034c-0.007,-0.008 -0.014,-0.015 -0.02,-0.021c-0.029,-0.024 -0.041,-0.051 -0.035,-0.081c0.006,-0.03 0.026,-0.06 0.059,-0.09c0.006,-0.007 0.011,-0.008 0.015,-0.004c0.004,0.004 0.004,0.008 0,0.012c-0.015,0.015 -0.021,0.03 -0.02,0.044c0.002,0.014 0.013,0.024 0.035,0.031c0.025,0.008 0.043,0.018 0.053,0.03c0.01,0.012 0.016,0.026 0.019,0.042c0,0.003 0.002,0.005 0.004,0.006c0.002,0.001 0.005,0.002 0.008,0Z" style="fill:#d8dee9;fill-opacity:0.19;fill-rule:nonzero;"/></g><g transform="matrix(68.742993,-60.639745,60.639745,68.742993,395.144956,463.495068)"><path d="M0.085,-0.578c-0.014,0.015 -0.021,0.03 -0.019,0.044c0.002,0.014 0.013,0.024 0.035,0.031c0.028,0.008 0.047,0.019 0.056,0.033c0.009,0.014 0.015,0.029 0.017,0.047c0,0.003 0.002,0.005 0.004,0.006c0.002,0.001 0.005,0.001 0.008,0c0.041,-0.024 0.084,-0.053 0.127,-0.086c0.003,-0.002 0.005,-0.002 0.008,-0.001c0.003,0.001 0.004,0.003 0.005,0.006c0.003,0.018 0.01,0.033 0.02,0.045c0.01,0.012 0.02,0.025 0.031,0.037c0.04,0.045 0.058,0.096 0.053,0.152c-0.005,0.069 -0.028,0.121 -0.072,0.158c-0.048,0.04 -0.085,0.078 -0.11,0.114c-0.003,0.004 -0.007,0.005 -0.011,0.002c-0.008,-0.005 -0.041,-0.023 -0.049,-0.028c-0.003,-0.001 -0.005,-0.001 -0.008,-0c-0.002,0.001 -0.004,0.003 -0.004,0.007c-0.004,0.035 -0.009,0.07 -0.015,0.104c-0.006,0.034 -0.012,0.068 -0.019,0.102c-0.001,0.005 -0.004,0.007 -0.008,0.007c-0.004,-0 -0.007,-0.002 -0.008,-0.007c-0.007,-0.039 -0.013,-0.081 -0.019,-0.126c-0.006,-0.045 -0.011,-0.088 -0.014,-0.129c-0.001,-0.004 -0.002,-0.006 -0.005,-0.007c-0.033,-0.012 -0.056,-0.011 -0.07,0.004c-0.003,0.003 -0.006,0.004 -0.009,0.003c-0.003,-0.001 -0.005,-0.004 -0.005,-0.009c0,-0.053 0.026,-0.081 0.076,-0.084c0.005,0 0.007,-0.003 0.007,-0.008l0,-0.015c0,-0.049 -0.001,-0.083 -0.002,-0.104c-0.001,-0.021 -0.003,-0.047 -0.004,-0.077c-0.001,-0.015 -0.004,-0.026 -0.011,-0.034c-0.007,-0.008 -0.014,-0.015 -0.021,-0.021c-0.03,-0.024 -0.042,-0.051 -0.037,-0.081c0.005,-0.029 0.024,-0.059 0.058,-0.09c0.006,-0.006 0.011,-0.008 0.015,-0.004c0.004,0.003 0.004,0.007 -0,0.012Zm0.097,0.442c0,0.004 0.001,0.006 0.004,0.007c0.017,0.008 0.033,0.017 0.049,0.027c0.016,0.009 0.032,0.019 0.048,0.028c0.005,0.002 0.009,0.001 0.011,-0.003c0.01,-0.015 0.019,-0.034 0.027,-0.057c0.008,-0.022 0.013,-0.05 0.014,-0.084c0.001,-0.035 -0.006,-0.066 -0.02,-0.094c-0.014,-0.028 -0.03,-0.054 -0.046,-0.079c-0.017,-0.024 -0.047,-0.026 -0.089,-0.005c-0.003,0.002 -0.005,0.004 -0.005,0.007c0,0.004 0,0.01 0,0.018l0.006,0.193c0,0.009 0,0.023 0,0.041Z" style="fill:#d8dee9;fill-opacity:0.19;fill-rule:nonzero;"/></g><g transform="matrix(91.306336,-8.119772,8.119772,91.306336,448.388755,426.910794)"><path d="M0.027,-0.642c-0.004,-0.006 -0.004,-0.011 0.001,-0.014c0.005,-0.003 0.01,-0.002 0.015,0.004c0.014,0.018 0.026,0.037 0.035,0.058c0.001,0.003 0.003,0.005 0.007,0.005c0.003,0.001 0.006,-0.001 0.008,-0.004c0.019,-0.034 0.049,-0.06 0.089,-0.078c0.041,-0.018 0.082,-0.026 0.123,-0.022c0.008,0 0.013,0.004 0.013,0.01c0,0.007 -0.004,0.009 -0.012,0.009c-0.034,-0.002 -0.064,0.006 -0.089,0.023c-0.025,0.018 -0.038,0.052 -0.038,0.104l0.001,0.109c0,0.003 0.001,0.006 0.004,0.007c0.003,0.001 0.005,0.001 0.008,-0c0.018,-0.01 0.036,-0.021 0.054,-0.032c0.018,-0.012 0.035,-0.025 0.05,-0.04c0.012,-0.012 0.019,-0.01 0.021,0.006c0.001,0.012 0.006,0.023 0.015,0.032c0.009,0.009 0.017,0.019 0.024,0.028c0.044,0.056 0.067,0.117 0.068,0.182c0.002,0.096 -0.031,0.18 -0.101,0.254c-0.07,0.073 -0.133,0.129 -0.19,0.168c-0.008,0.006 -0.014,0.006 -0.017,0.003c-0.004,-0.004 -0.003,-0.008 0.003,-0.013c0.046,-0.041 0.092,-0.085 0.139,-0.133c0.047,-0.048 0.068,-0.125 0.064,-0.229c-0.002,-0.041 -0.008,-0.08 -0.019,-0.116c-0.011,-0.036 -0.03,-0.066 -0.058,-0.091c-0.014,-0.012 -0.034,-0.012 -0.06,0c-0.003,0.001 -0.004,0.003 -0.004,0.007l0.002,0.295c0,0.026 0.011,0.037 0.032,0.033c0.005,-0.001 0.009,-0.004 0.012,-0.007c0.004,-0.004 0.008,-0.007 0.012,-0.01c0.004,-0.003 0.008,-0.003 0.012,0.001c0.004,0.003 0.004,0.007 0,0.01c-0.016,0.018 -0.032,0.034 -0.048,0.049c-0.016,0.015 -0.029,0.031 -0.038,0.049c-0.004,0.008 -0.01,0.008 -0.018,0c-0.029,-0.031 -0.061,-0.055 -0.095,-0.07c-0.011,-0.006 -0.012,-0.011 -0.002,-0.016c0.021,-0.007 0.031,-0.029 0.031,-0.064l-0.001,-0.326c-0,-0.044 -0.005,-0.08 -0.015,-0.108c-0.01,-0.028 -0.022,-0.052 -0.036,-0.071Z" style="fill:#d8dee9;fill-opacity:0.19;fill-rule:nonzero;"/></g><g transform="matrix(70.520263,58.563387,-58.563387,70.520263,518.943368,427.981256)"><path d="M0.425,-0.415c0.02,-0.011 0.042,-0.023 0.066,-0.038c0.024,-0.015 0.044,-0.029 0.059,-0.044c0.011,-0.012 0.018,-0.01 0.021,0.006c0.001,0.012 0.006,0.023 0.015,0.032c0.009,0.009 0.017,0.019 0.024,0.028c0.038,0.05 0.056,0.102 0.052,0.156c-0.004,0.057 -0.022,0.102 -0.056,0.136c-0.014,0.015 -0.029,0.029 -0.046,0.042c-0.017,0.014 -0.033,0.03 -0.048,0.049c-0.015,0.019 -0.028,0.039 -0.04,0.061c-0.004,0.009 -0.01,0.009 -0.018,0c-0.035,-0.044 -0.09,-0.078 -0.164,-0.101c-0.005,-0.002 -0.007,-0.005 -0.007,-0.009c0,-0.003 0.002,-0.006 0.005,-0.007c0.021,-0.007 0.031,-0.029 0.031,-0.065c0,-0.032 -0,-0.065 -0.001,-0.097c-0.001,-0.032 -0.001,-0.065 0,-0.097l0,-0c-0.001,-0.01 -0.006,-0.021 -0.016,-0.033c-0.015,-0.02 -0.031,-0.024 -0.046,-0.012l-0.053,0.04c-0.002,0.002 -0.003,0.004 -0.003,0.007c0,0.031 0,0.063 0,0.094c0,0.031 0,0.063 0,0.094c0,0.051 0.01,0.082 0.03,0.091c0.002,0.002 0.003,0.004 0.003,0.007c0,0.003 -0.001,0.005 -0.003,0.006c-0.032,0.023 -0.056,0.053 -0.072,0.088c-0.002,0.003 -0.005,0.005 -0.007,0.004c-0.003,-0 -0.005,-0.002 -0.007,-0.004c-0.018,-0.036 -0.042,-0.065 -0.074,-0.088c-0.003,-0.001 -0.004,-0.003 -0.004,-0.006c0,-0.003 0.001,-0.005 0.004,-0.007c0.021,-0.01 0.032,-0.04 0.032,-0.091l0,-0.091c0,-0.03 -0,-0.061 -0.001,-0.091c-0,-0.015 -0.004,-0.026 -0.011,-0.034c-0.007,-0.008 -0.014,-0.015 -0.021,-0.021c-0.029,-0.024 -0.041,-0.051 -0.036,-0.081c0.005,-0.029 0.024,-0.059 0.057,-0.09c0.006,-0.006 0.011,-0.007 0.016,-0.004c0.004,0.003 0.004,0.007 -0,0.012c-0.014,0.015 -0.021,0.03 -0.019,0.044c0.001,0.014 0.013,0.024 0.035,0.031c0.03,0.009 0.05,0.022 0.06,0.038c0.01,0.016 0.015,0.034 0.017,0.055c0,0.004 0.001,0.006 0.004,0.008c0.003,0.001 0.006,0.001 0.009,-0.002c0.017,-0.014 0.035,-0.03 0.055,-0.047c0.02,-0.018 0.034,-0.033 0.042,-0.045c0.005,-0.009 0.013,-0.011 0.022,-0.006c0,0 0,0 0.001,0c0.043,0.021 0.07,0.047 0.082,0.077c0.001,0.003 0.002,0.005 0.004,0.005c0.002,0.001 0.004,0 0.007,-0.001Zm-0.005,0.103c0,0.076 0.001,0.132 0.001,0.17c0,0.005 0.002,0.008 0.006,0.01l0.075,0.045c0.008,0.004 0.015,0.004 0.02,-0.002l0.009,-0.009c0.027,-0.039 0.041,-0.087 0.041,-0.144c0,-0.032 -0.007,-0.062 -0.02,-0.088c-0.013,-0.027 -0.031,-0.052 -0.053,-0.076c-0.012,-0.013 -0.03,-0.013 -0.055,-0.002c-0.005,0.002 -0.011,0.006 -0.019,0.01c-0.003,0.001 -0.005,0.004 -0.004,0.008c0,0.009 -0,0.035 -0,0.079Z" style="fill:#d8dee9;fill-opacity:0.19;fill-rule:nonzero;"/></g><g transform="matrix(14.146937,90.568438,-90.568438,14.146937,576.776908,494.873079)"><path d="M0.166,0.014c-0.001,-0.008 -0.005,-0.014 -0.012,-0.018c-0.008,-0.004 -0.014,-0.008 -0.019,-0.012c-0.037,-0.025 -0.064,-0.056 -0.079,-0.093c-0.015,-0.037 -0.024,-0.075 -0.026,-0.116c-0.004,-0.093 0.021,-0.163 0.075,-0.212c0.019,-0.017 0.041,-0.031 0.066,-0.042c0.025,-0.011 0.051,-0.02 0.077,-0.027c0.008,-0.002 0.014,0.002 0.018,0.012l0.07,0.165c0.003,0.009 0.002,0.014 -0.003,0.017l-0.001,0l-0.2,0.078c-0.004,0.002 -0.006,0.005 -0.005,0.009c0.016,0.072 0.043,0.119 0.08,0.139c0.037,0.02 0.075,0.023 0.112,0.009c0.007,-0.003 0.011,-0.002 0.012,0.001c0.002,0.004 0.001,0.007 -0.004,0.009c-0.026,0.013 -0.052,0.027 -0.075,0.041c-0.024,0.014 -0.045,0.029 -0.064,0.044c-0.003,0.002 -0.007,0.003 -0.013,0.002c-0.006,-0.001 -0.009,-0.003 -0.009,-0.006Zm-0.045,-0.276c0,0.003 0.001,0.005 0.003,0.006c0.002,0.001 0.004,0.002 0.007,0l0.104,-0.039c0.005,-0.002 0.006,-0.005 0.004,-0.01l-0.06,-0.146c-0.003,-0.007 -0.009,-0.008 -0.018,-0.003c-0.019,0.011 -0.032,0.036 -0.039,0.076c-0.007,0.039 -0.008,0.078 -0.003,0.116Z" style="fill:#d8dee9;fill-opacity:0.19;fill-rule:nonzero;"/></g><g transform="matrix(-36.761386,83.972485,-83.972485,-36.761386,580.541098,549.009045)"><path d="M0.261,-0.069c-0.017,0.013 -0.035,0.027 -0.055,0.042c-0.02,0.015 -0.038,0.029 -0.055,0.042c-0.006,0.005 -0.01,0.007 -0.014,0.006c-0.003,-0.001 -0.005,-0.004 -0.004,-0.009c0,-0.007 -0.01,-0.02 -0.03,-0.039c-0.053,-0.05 -0.079,-0.115 -0.077,-0.194c0.002,-0.068 0.034,-0.126 0.095,-0.173c0.019,-0.014 0.037,-0.029 0.053,-0.045c0.016,-0.016 0.031,-0.035 0.044,-0.058c0.005,-0.01 0.012,-0.01 0.021,-0.001c0.049,0.056 0.099,0.089 0.148,0.099c0.016,0.003 0.017,0.009 0.005,0.019c-0.015,0.011 -0.024,0.025 -0.025,0.041l0.001,0.224c0,0.015 0.005,0.025 0.016,0.031c0.011,0.006 0.023,0.001 0.035,-0.013c0.005,-0.006 0.01,-0.007 0.014,-0.004c0.004,0.003 0.004,0.008 0,0.015c-0.012,0.018 -0.023,0.035 -0.034,0.052c-0.011,0.017 -0.02,0.035 -0.028,0.053l-0,0c-0.005,0.007 -0.01,0.007 -0.017,0c-0.004,-0.004 -0.008,-0.007 -0.013,-0.008c-0.037,-0.008 -0.061,-0.033 -0.07,-0.074c-0.001,-0.002 -0.002,-0.004 -0.005,-0.006c-0.003,-0 -0.006,0 -0.008,0.001Zm0.005,-0.288c-0.02,-0.006 -0.044,-0.021 -0.071,-0.047c-0.013,-0.016 -0.023,-0.017 -0.031,-0.004c-0.035,0.051 -0.048,0.108 -0.041,0.17c0.01,0.089 0.042,0.144 0.094,0.165c0,0 0.001,0 0.001,0c0.013,0.004 0.029,-0.004 0.048,-0.024c0.001,-0.002 0.002,-0.004 0.002,-0.005c-0,-0.005 -0,-0.013 -0,-0.023l0.004,-0.224c0,-0.004 -0.002,-0.007 -0.006,-0.008Z" style="fill:#d8dee9;fill-opacity:0.19;fill-rule:nonzero;"/></g><g transform="matrix(-77.896197,48.321427,-48.321427,-77.896197,548.452543,604.435578)"><path d="M0.061,-0.051c-0.006,0.002 -0.01,0.001 -0.01,-0.003c-0.001,-0.004 0.002,-0.009 0.007,-0.014c0.037,-0.05 0.056,-0.097 0.056,-0.141c0,-0.044 -0.015,-0.082 -0.047,-0.114c-0.052,-0.054 -0.075,-0.096 -0.067,-0.127c0.007,-0.031 0.033,-0.068 0.076,-0.111c0.004,-0.005 0.008,-0.005 0.011,-0.002c0.003,0.003 0.003,0.007 -0.001,0.011c-0.023,0.027 -0.024,0.051 -0.005,0.071c0.024,0.024 0.042,0.046 0.056,0.064c0.003,0.004 0.006,0.005 0.011,0.002c0.029,-0.016 0.056,-0.032 0.082,-0.05c0.026,-0.018 0.052,-0.037 0.077,-0.056c0.003,-0.002 0.005,-0.003 0.008,-0.002c0.003,0.001 0.005,0.003 0.005,0.007c0.003,0.018 0.009,0.033 0.02,0.046c0.01,0.013 0.021,0.025 0.031,0.037c0.039,0.047 0.057,0.099 0.053,0.156c-0.005,0.071 -0.029,0.125 -0.072,0.162c-0.021,0.019 -0.043,0.039 -0.066,0.062c-0.022,0.023 -0.041,0.045 -0.056,0.065c-0.004,0.004 -0.007,0.005 -0.011,0.002c-0.018,-0.012 -0.043,-0.028 -0.073,-0.048c-0.031,-0.021 -0.059,-0.026 -0.085,-0.018Zm0.088,-0.081c0.018,0.007 0.037,0.016 0.057,0.028c0.022,0.013 0.042,0.025 0.06,0.036c0.004,0.003 0.008,0.002 0.011,-0.003c0.009,-0.016 0.02,-0.037 0.033,-0.064c0.012,-0.027 0.019,-0.058 0.02,-0.092c0,-0.035 -0.007,-0.067 -0.021,-0.096c-0.014,-0.028 -0.029,-0.055 -0.046,-0.081c-0.019,-0.027 -0.054,-0.026 -0.105,0.003c-0.005,0.002 -0.006,0.006 -0.003,0.011c0.028,0.049 0.038,0.094 0.03,0.135c-0.007,0.04 -0.02,0.077 -0.04,0.111c-0.001,0.002 -0.001,0.004 -0,0.007c0.001,0.003 0.002,0.005 0.005,0.005Z" style="fill:#d8dee9;fill-opacity:0.19;fill-rule:nonzero;"/></g><g transform="matrix(-91.625086,-2.76068,2.76068,-91.625086,491.576859,630.494621)"><path d="M0.166,0.014c-0.001,-0.008 -0.005,-0.014 -0.012,-0.018c-0.008,-0.004 -0.014,-0.008 -0.019,-0.012c-0.037,-0.025 -0.064,-0.056 -0.079,-0.093c-0.015,-0.037 -0.024,-0.075 -0.026,-0.116c-0.004,-0.093 0.021,-0.163 0.075,-0.212c0.019,-0.017 0.041,-0.031 0.066,-0.042c0.025,-0.011 0.051,-0.02 0.077,-0.027c0.008,-0.002 0.014,0.002 0.018,0.012l0.07,0.165c0.003,0.009 0.002,0.014 -0.003,0.017l-0.001,0l-0.2,0.078c-0.004,0.002 -0.006,0.005 -0.005,0.009c0.016,0.072 0.043,0.119 0.08,0.139c0.037,0.02 0.075,0.023 0.112,0.009c0.007,-0.003 0.011,-0.002 0.012,0.001c0.002,0.004 0.001,0.007 -0.004,0.009c-0.026,0.013 -0.052,0.027 -0.075,0.041c-0.024,0.014 -0.045,0.029 -0.064,0.044c-0.003,0.002 -0.007,0.003 -0.013,0.002c-0.006,-0.001 -0.009,-0.003 -0.009,-0.006Zm-0.045,-0.276c0,0.003 0.001,0.005 0.003,0.006c0.002,0.001 0.004,0.002 0.007,0l0.104,-0.039c0.005,-0.002 0.006,-0.005 0.004,-0.01l-0.06,-0.146c-0.003,-0.007 -0.009,-0.008 -0.018,-0.003c-0.019,0.011 -0.032,0.036 -0.039,0.076c-0.007,0.039 -0.008,0.078 -0.003,0.116Z" style="fill:#d8dee9;fill-opacity:0.19;fill-rule:nonzero;"/></g></g><g transform="matrix(1.275149,0,0,1.28498,-175.553689,-141.062368)"><path d="M756.414,399.536l0,256.64c0,65.317 -53.438,118.347 -119.259,118.347l-238.518,0c-65.821,0 -119.259,-53.029 -119.259,-118.347l0,-256.64c0,-65.317 53.438,-118.347 119.259,-118.347l238.518,0c65.821,0 119.259,53.029 119.259,118.347Z" style="fill:#9ba1b0;"/></g></g></g></svg>